<svg width="1200" height="408" viewBox="0 0 1200 408" fill="none" xmlns="http://www.w3.org/2000/svg">
<path d="M196.262 232.199L200.341 233.254C204.672 234.375 207.273 238.795 206.152 243.126L205.068 247.307C203.947 251.641 199.527 254.241 195.196 253.12L191.116 252.065C186.785 250.941 184.185 246.524 185.306 242.193L186.389 238.009C187.51 233.678 191.931 231.075 196.262 232.199ZM232.516 120.196C243.111 122.943 250.143 128.817 253.616 137.823C256.384 144.936 256.722 152.537 254.627 160.624C251.125 174.146 241.672 185.423 226.264 194.448C220.892 197.592 217.336 201.952 215.594 207.528C214.967 209.374 214.354 211.443 213.759 213.746C212.638 218.077 208.217 220.68 203.887 219.556L199.81 218.501C195.479 217.38 192.876 212.96 193.997 208.629C197.192 196.289 202.598 187.91 210.217 183.487C218.445 178.696 224.666 173.207 228.875 167.007C231.297 163.395 233.079 159.394 234.215 154.999C235.388 150.472 235.298 146.655 233.943 143.549C232.49 139.975 229.563 137.915 225.168 137.375C221.069 136.832 217.498 138.843 214.455 143.413C214.302 143.636 214.152 143.861 214.005 144.092C211.838 147.473 207.504 148.735 203.849 147.074L200.269 145.442C195.834 143.419 194.159 137.958 196.721 133.812C199.264 129.692 202.462 126.277 206.316 123.564C210.497 120.632 215.663 119.069 221.814 118.875C225.044 118.745 228.612 119.187 232.516 120.196Z" fill="#6933DC"/>
<path d="M93.4202 364.761L99.1339 363.176C105.201 361.495 111.48 365.052 113.161 371.119L114.782 376.976C116.465 383.047 112.908 389.326 106.841 391.007L101.127 392.592C95.0585 394.27 88.7813 390.716 87.1002 384.649L85.477 378.788C83.7959 372.721 87.3514 366.439 93.4202 364.761ZM58.7959 202.756C73.6408 198.65 86.3438 200.86 96.9126 209.392C105.291 216.113 111.051 225.139 114.188 236.468C119.435 255.411 115.848 275.805 103.421 297.646C99.0873 305.256 97.8206 313.072 99.6208 321.093C100.156 323.784 100.865 326.736 101.76 329.961C103.441 336.028 99.8852 342.311 93.8164 343.988L88.1062 345.571C82.0394 347.253 75.7567 343.697 74.0756 337.63C69.2875 320.343 69.98 306.329 76.1526 295.578C82.81 283.95 86.5284 272.883 87.296 262.365C87.7055 256.26 87.0625 250.13 85.3543 243.975C83.5983 237.632 80.8037 233.044 76.967 230.212C72.6813 226.879 67.665 226.428 61.9294 228.862C56.5508 231.084 53.6137 236.048 53.1221 243.759C53.092 244.137 53.0674 244.518 53.0505 244.903C52.7882 250.547 48.395 255.135 42.772 255.682L37.2609 256.212C30.4331 256.867 24.5487 251.392 24.7547 244.536C24.9543 237.726 26.4493 231.314 29.2375 225.296C32.2691 218.78 37.4649 213.241 44.825 208.677C48.67 206.245 53.3295 204.274 58.7959 202.756Z" fill="#DCDCF3"/>
<path d="M1064.97 360.234L1074.17 362.612C1083.94 365.14 1089.8 375.109 1087.28 384.875L1084.83 394.303C1082.31 404.076 1072.34 409.939 1062.57 407.412L1053.37 405.033C1043.6 402.499 1037.74 392.537 1040.27 382.771L1042.71 373.337C1045.24 363.57 1055.21 357.7 1064.97 360.234ZM1146.73 107.662C1170.62 113.858 1186.48 127.104 1194.31 147.412C1200.55 163.453 1201.31 180.594 1196.59 198.831C1188.69 229.322 1167.38 254.752 1132.63 275.105C1120.52 282.194 1112.5 292.026 1108.57 304.6C1107.15 308.763 1105.77 313.428 1104.43 318.621C1101.9 328.387 1091.94 334.258 1082.17 331.723L1072.98 329.345C1063.21 326.817 1057.34 316.849 1059.87 307.082C1067.07 279.256 1079.26 260.361 1096.44 250.386C1115 239.584 1129.03 227.205 1138.52 213.223C1143.98 205.079 1148 196.055 1150.56 186.145C1153.21 175.936 1153 167.329 1149.95 160.325C1146.67 152.266 1140.07 147.621 1130.16 146.402C1120.92 145.177 1112.86 149.712 1106 160.019C1105.66 160.521 1105.32 161.029 1104.99 161.55C1100.1 169.173 1090.33 172.02 1082.08 168.274L1074.01 164.593C1064.01 160.032 1060.23 147.718 1066.01 138.369C1071.74 129.078 1078.96 121.377 1087.65 115.259C1097.08 108.646 1108.73 105.121 1122.6 104.685C1129.88 104.392 1137.93 105.388 1146.73 107.662Z" fill="#DCDCF3"/>
<path d="M956.804 124.94L961.018 124.903C965.491 124.865 969.147 128.462 969.185 132.935L969.221 137.254C969.26 141.73 965.663 145.386 961.189 145.424L956.976 145.461C952.502 145.497 948.846 141.902 948.808 137.429L948.772 133.108C948.734 128.634 952.33 124.975 956.804 124.94ZM962.834 7.36986C973.779 7.28175 982.092 11.1353 987.778 18.9353C992.292 25.0898 994.586 32.3448 994.656 40.6983C994.773 54.6654 988.56 68.0046 976.013 80.7109C971.639 85.1374 969.332 90.2692 969.092 96.1063C968.964 98.0518 968.908 100.209 968.929 102.587C968.967 107.06 965.371 110.719 960.897 110.754L956.686 110.791C952.213 110.829 948.554 107.233 948.516 102.759C948.409 90.0128 951.462 80.5205 957.676 74.2759C964.384 67.5191 968.972 60.6067 971.434 53.5281C972.838 49.413 973.524 45.0864 973.483 40.5478C973.444 35.871 972.37 32.2076 970.257 29.5582C967.929 26.4822 964.568 25.2499 960.184 25.8654C956.083 26.4018 953.154 29.2685 951.398 34.4709C951.308 34.7254 951.221 34.982 951.139 35.2434C949.921 39.0694 946.061 41.4107 942.101 40.7519L938.221 40.1016C933.413 39.296 930.381 34.4551 931.784 29.7871C933.173 25.1494 935.379 21.0229 938.4 17.4048C941.679 13.4901 946.264 10.6433 952.156 8.86428C955.242 7.90266 958.803 7.40613 962.834 7.36986Z" fill="#6933DC"/>
</svg>
